<?xml version="1.0" encoding="UTF-8"?>
<svg xmlns="http://www.w3.org/2000/svg" xmlns:xlink="http://www.w3.org/1999/xlink" width="20pt" height="20pt" viewBox="0 0 20 20" version="1.1">
<g id="surface1">
<path style=" stroke:none;fill-rule:nonzero;fill:rgb(255%,255%,255%);fill-opacity:.87;" d="M 11.90625 0 L 8.09375 0 C 4.105469 0 0.859375 3.246094 0.859375 7.234375 L 0.859375 10.667969 C 0.859375 13.636719 2.683594 16.308594 5.429688 17.394531 L 5.429688 19.617188 C 5.429688 19.769531 5.519531 19.90625 5.65625 19.96875 C 5.707031 19.988281 5.757812 20 5.808594 20 C 5.902344 20 5.996094 19.964844 6.066406 19.902344 L 8.273438 17.902344 L 11.90625 17.902344 C 15.894531 17.902344 19.140625 14.65625 19.140625 10.667969 L 19.140625 7.234375 C 19.140625 3.246094 15.894531 0 11.90625 0 Z M 18.378906 10.667969 C 18.378906 14.234375 15.476562 17.140625 11.90625 17.140625 L 8.128906 17.140625 C 8.03125 17.140625 7.941406 17.175781 7.871094 17.238281 L 6.191406 18.761719 L 6.191406 17.128906 C 6.191406 16.96875 6.089844 16.824219 5.9375 16.773438 C 3.355469 15.859375 1.621094 13.40625 1.621094 10.667969 L 1.621094 7.234375 C 1.621094 3.664062 4.523438 0.761719 8.09375 0.761719 L 11.90625 0.761719 C 15.476562 0.761719 18.378906 3.664062 18.378906 7.234375 Z M 18.378906 10.667969 "/>
<path style=" stroke:none;fill-rule:nonzero;fill:rgb(255%,255%,255%);fill-opacity:.87;" d="M 15.035156 11.613281 L 12.691406 10.09375 C 12.4375 9.925781 12.132812 9.871094 11.832031 9.933594 C 11.535156 9.996094 11.277344 10.171875 11.113281 10.429688 L 11 10.597656 C 9.988281 10.261719 8.871094 9.835938 8.203125 7.898438 L 8.480469 7.660156 C 8.953125 7.246094 9.003906 6.523438 8.589844 6.046875 L 6.761719 3.941406 C 6.621094 3.78125 6.382812 3.765625 6.222656 3.902344 L 5.074219 4.902344 C 4.066406 5.777344 4.535156 7.074219 4.691406 7.5 C 4.699219 7.519531 4.707031 7.539062 4.714844 7.554688 C 4.757812 7.628906 5.710938 9.332031 7.253906 10.902344 C 8.800781 12.480469 11.597656 13.9375 11.683594 13.980469 C 12 14.1875 12.359375 14.285156 12.714844 14.285156 C 13.339844 14.285156 13.953125 13.980469 14.316406 13.417969 L 15.144531 12.140625 C 15.261719 11.964844 15.210938 11.730469 15.035156 11.613281 Z M 13.675781 13.003906 C 13.332031 13.53125 12.625 13.683594 12.066406 13.320312 C 12.035156 13.308594 9.261719 11.859375 7.796875 10.371094 C 6.429688 8.976562 5.519531 7.429688 5.394531 7.210938 C 5.09375 6.367188 5.148438 5.847656 5.574219 5.476562 L 6.4375 4.726562 L 8.015625 6.546875 C 8.15625 6.707031 8.140625 6.945312 7.980469 7.082031 L 7.511719 7.488281 C 7.398438 7.589844 7.355469 7.746094 7.398438 7.890625 C 8.195312 10.476562 9.746094 10.988281 10.875 11.359375 L 11.042969 11.414062 C 11.207031 11.46875 11.386719 11.40625 11.480469 11.257812 L 11.75 10.84375 C 11.808594 10.757812 11.890625 10.699219 11.992188 10.679688 C 12.089844 10.65625 12.191406 10.675781 12.277344 10.730469 L 14.300781 12.046875 Z M 13.675781 13.003906 "/>
<path style=" stroke:none;fill-rule:nonzero;fill:rgb(255%,255%,255%);fill-opacity:.87;" d="M 10.871094 6.1875 C 10.667969 6.128906 10.457031 6.246094 10.398438 6.449219 C 10.339844 6.652344 10.457031 6.863281 10.660156 6.921875 C 11.226562 7.082031 11.679688 7.535156 11.839844 8.101562 C 11.886719 8.269531 12.039062 8.378906 12.207031 8.378906 C 12.242188 8.378906 12.277344 8.375 12.308594 8.367188 C 12.511719 8.308594 12.628906 8.097656 12.574219 7.894531 C 12.34375 7.074219 11.6875 6.421875 10.871094 6.1875 Z M 10.871094 6.1875 "/>
<path style=" stroke:none;fill-rule:nonzero;fill:rgb(255%,255%,255%);fill-opacity:.87;" d="M 13.769531 8.460938 C 13.800781 8.460938 13.835938 8.457031 13.871094 8.449219 C 14.074219 8.390625 14.191406 8.179688 14.132812 7.980469 C 13.683594 6.386719 12.417969 5.113281 10.824219 4.660156 C 10.621094 4.601562 10.414062 4.722656 10.355469 4.925781 C 10.296875 5.125 10.414062 5.335938 10.617188 5.394531 C 11.957031 5.773438 13.023438 6.84375 13.402344 8.183594 C 13.449219 8.351562 13.601562 8.460938 13.769531 8.460938 Z M 13.769531 8.460938 "/>
<path style=" stroke:none;fill-rule:nonzero;fill:rgb(255%,255%,255%);fill-opacity:.87;" d="M 10.660156 2.886719 C 10.457031 2.828125 10.246094 2.945312 10.191406 3.148438 C 10.132812 3.351562 10.25 3.5625 10.453125 3.621094 C 12.722656 4.265625 14.53125 6.078125 15.171875 8.347656 C 15.21875 8.515625 15.371094 8.628906 15.535156 8.628906 C 15.570312 8.628906 15.605469 8.621094 15.640625 8.613281 C 15.84375 8.554688 15.960938 8.34375 15.902344 8.144531 C 15.191406 5.617188 13.183594 3.605469 10.660156 2.886719 Z M 10.660156 2.886719 "/>
</g>
</svg>
