<?xml version="1.0" encoding="UTF-8"?>
<svg xmlns="http://www.w3.org/2000/svg" xmlns:xlink="http://www.w3.org/1999/xlink" width="20pt" height="20pt" viewBox="0 0 20 20" version="1.1">
<g id="surface1">
<path style=" stroke:none;fill-rule:nonzero;fill:rgb(100%,100%,100%);fill-opacity:0.870588;" d="M 9.785156 0 C 4.570312 0 0.320312 4.25 0.320312 9.46875 C 0.320312 11.117188 0.75 12.742188 1.570312 14.167969 L 0.015625 18.832031 C -0.015625 18.945312 0.0078125 19.066406 0.0820312 19.152344 C 0.148438 19.214844 0.234375 19.253906 0.320312 19.253906 C 0.34375 19.253906 0.375 19.253906 0.398438 19.242188 L 5.492188 17.902344 C 6.816406 18.574219 8.296875 18.933594 9.785156 18.933594 C 15.003906 18.933594 19.253906 14.6875 19.253906 9.46875 C 19.253906 4.25 15.003906 0 9.785156 0 Z M 9.785156 18.289062 C 8.675781 18.289062 7.570312 18.078125 6.539062 17.667969 L 8.097656 17.320312 C 8.265625 17.28125 8.375 17.113281 8.332031 16.9375 C 8.296875 16.765625 8.125 16.65625 7.953125 16.695312 L 5.464844 17.246094 C 5.464844 17.246094 5.457031 17.246094 5.457031 17.246094 C 5.453125 17.25 5.449219 17.246094 5.449219 17.25 L 0.820312 18.472656 L 2.226562 14.238281 C 2.261719 14.144531 2.242188 14.046875 2.195312 13.96875 C 1.386719 12.609375 0.960938 11.054688 0.960938 9.46875 C 0.960938 4.601562 4.917969 0.640625 9.785156 0.640625 C 14.652344 0.640625 18.613281 4.601562 18.613281 9.46875 C 18.613281 14.328125 14.652344 18.289062 9.785156 18.289062 Z M 9.785156 18.289062 "/>
<path style=" stroke:none;fill-rule:nonzero;fill:rgb(100%,100%,100%);fill-opacity:0.870588;" d="M 15.90625 12.363281 C 15.457031 11.507812 13.976562 10.621094 13.804688 10.519531 C 13.496094 10.347656 13.175781 10.292969 12.902344 10.367188 C 12.6875 10.421875 12.515625 10.5625 12.398438 10.75 C 12.183594 11.007812 11.914062 11.3125 11.851562 11.363281 C 11.363281 11.691406 10.992188 11.652344 10.574219 11.234375 L 8.019531 8.675781 C 7.601562 8.261719 7.566406 7.890625 7.882812 7.410156 C 7.945312 7.339844 8.25 7.070312 8.503906 6.851562 C 8.699219 6.734375 8.828125 6.566406 8.890625 6.355469 C 8.964844 6.082031 8.90625 5.757812 8.730469 5.445312 C 8.632812 5.28125 7.746094 3.804688 6.890625 3.351562 C 6.429688 3.097656 5.863281 3.183594 5.488281 3.554688 L 4.921875 4.121094 C 4.003906 5.039062 3.675781 6.085938 3.9375 7.222656 C 4.15625 8.160156 4.78125 9.152344 5.808594 10.179688 L 9.078125 13.445312 C 10.101562 14.472656 11.09375 15.101562 12.03125 15.316406 C 12.28125 15.375 12.53125 15.402344 12.769531 15.402344 C 13.625 15.402344 14.414062 15.042969 15.132812 14.328125 L 15.695312 13.761719 C 16.066406 13.390625 16.15625 12.832031 15.90625 12.363281 Z M 15.238281 13.308594 L 14.675781 13.875 C 13.914062 14.636719 13.101562 14.902344 12.175781 14.691406 C 11.359375 14.5 10.464844 13.929688 9.53125 12.992188 L 6.257812 9.722656 C 5.320312 8.785156 4.753906 7.898438 4.5625 7.078125 C 4.347656 6.15625 4.617188 5.339844 5.375 4.578125 L 5.941406 4.011719 C 6.050781 3.902344 6.191406 3.851562 6.332031 3.851562 C 6.421875 3.851562 6.507812 3.875 6.59375 3.914062 C 7.179688 4.226562 7.9375 5.367188 8.175781 5.769531 C 8.261719 5.921875 8.296875 6.082031 8.265625 6.183594 C 8.25 6.238281 8.21875 6.277344 8.164062 6.308594 L 8.113281 6.34375 C 7.871094 6.539062 7.457031 6.898438 7.363281 7.042969 C 7.269531 7.175781 7.207031 7.300781 7.152344 7.429688 C 7.050781 7.179688 6.96875 6.898438 6.9375 6.59375 C 6.917969 6.417969 6.765625 6.296875 6.582031 6.3125 C 6.410156 6.328125 6.277344 6.484375 6.296875 6.664062 C 6.464844 8.25 7.695312 9.28125 7.753906 9.324219 C 7.753906 9.328125 7.757812 9.328125 7.765625 9.332031 L 10.117188 11.6875 C 10.132812 11.699219 10.140625 11.699219 10.148438 11.714844 C 10.15625 11.722656 10.160156 11.742188 10.171875 11.75 C 10.21875 11.792969 11.246094 12.792969 12.8125 12.957031 C 12.824219 12.957031 12.839844 12.957031 12.847656 12.957031 C 13.003906 12.957031 13.144531 12.839844 13.167969 12.667969 C 13.183594 12.492188 13.058594 12.335938 12.878906 12.316406 C 12.515625 12.277344 12.183594 12.183594 11.894531 12.070312 C 12 12.023438 12.105469 11.964844 12.210938 11.894531 C 12.351562 11.792969 12.710938 11.378906 12.910156 11.136719 L 12.941406 11.09375 C 12.976562 11.035156 13.015625 11 13.070312 10.984375 C 13.175781 10.953125 13.335938 10.992188 13.480469 11.074219 C 13.894531 11.320312 15.023438 12.074219 15.339844 12.660156 C 15.457031 12.878906 15.417969 13.140625 15.238281 13.308594 Z M 15.238281 13.308594 "/>
</g>
</svg>
